<?xml version="1.0" encoding="iso-8859-1"?>
<!-- Generator: Adobe Illustrator 19.0.0, SVG Export Plug-In . SVG Version: 6.00 Build 0)  -->
<svg version="1.1" id="Layer_1" xmlns="http://www.w3.org/2000/svg" xmlns:xlink="http://www.w3.org/1999/xlink" x="0px" y="0px"
	 viewBox="0 0 512 512" style="enable-background:new 0 0 512 512;" xml:space="preserve">
<g>
	<g>
		<path d="M511.691,199.93c-0.888-3.597-3.592-6.462-7.127-7.561L196.643,96.807C159.359,64.989,44.086-27.777,8.144,8.139
			c-35.942,35.947,56.839,151.215,88.668,188.502l95.563,307.917c1.099,3.535,3.964,6.24,7.561,7.128
			c0.836,0.206,1.688,0.31,2.534,0.31c2.766,0,5.467-1.089,7.473-3.097l97.163-97.163l44.846,44.845
			c4.129,4.129,10.816,4.129,14.945,0l89.689-89.689c4.129-4.129,4.129-10.818,0-14.947L411.742,307.1l97.163-97.163
			C511.521,207.321,512.579,203.522,511.691,199.93z M389.322,299.627c-4.129,4.129-4.129,10.818,0,14.946l44.845,44.845
			l-74.743,74.743l-44.845-44.845c-4.129-4.129-10.818-4.129-14.947,0l-92.255,92.255l-91.021-293.279
			c-0.428-1.378-1.135-2.653-2.075-3.752C34.689,91.79,12.815,33.366,23.091,23.085c1.548-1.548,4.191-2.369,7.888-2.369
			c20.788,0,74.798,25.971,153.562,93.56c1.101,0.939,2.374,1.647,3.753,2.075l293.283,91.021L389.322,299.627z"/>
	</g>
</g>
<g>
	<g>
		<path d="M82.877,52.978c-8.237-8.221-21.641-8.237-29.888,0.005c-8.242,8.242-8.242,21.656,0.005,29.903
			C57.113,87,62.523,89.06,67.936,89.06c5.414,0,10.823-2.059,14.941-6.173c0.005,0,0.005-0.005,0.005-0.005
			C91.124,74.64,91.124,61.226,82.877,52.978z"/>
	</g>
</g>
<g>
	<g>
		<path d="M120.254,90.355c-8.237-8.247-21.656-8.247-29.893,0c-3.995,3.995-6.192,9.3-6.192,14.946
			c0,5.651,2.197,10.962,6.192,14.947c4.119,4.124,9.532,6.183,14.948,6.183c5.408,0,10.821-2.059,14.941-6.178
			c0,0,0.004,0,0.004-0.005c3.995-3.99,6.195-9.295,6.195-14.947C126.448,99.655,124.248,94.35,120.254,90.355z"/>
	</g>
</g>
<g>
	<g>
		<path d="M157.625,127.727c-8.237-8.247-21.656-8.242-29.903,0.005c-8.232,8.237-8.232,21.646,0.005,29.888
			c4.118,4.124,9.534,6.183,14.952,6.183c5.414,0,10.828-2.059,14.946-6.183C165.867,149.377,165.867,135.969,157.625,127.727z"/>
	</g>
</g>
<g>
</g>
<g>
</g>
<g>
</g>
<g>
</g>
<g>
</g>
<g>
</g>
<g>
</g>
<g>
</g>
<g>
</g>
<g>
</g>
<g>
</g>
<g>
</g>
<g>
</g>
<g>
</g>
<g>
</g>
</svg>
